<svg width="20" height="20" viewBox="0 0 20 20" fill="none" xmlns="http://www.w3.org/2000/svg">
<path d="M8.55566 17.4979C8.70195 17.7513 8.91234 17.9616 9.1657 18.1079C9.41906 18.2542 9.70645 18.3312 9.999 18.3312C10.2915 18.3312 10.5789 18.2542 10.8323 18.1079C11.0857 17.9616 11.296 17.7513 11.4423 17.4979" stroke="white" stroke-width="1.66647" stroke-linecap="round" stroke-linejoin="round"/>
<path d="M2.71794 12.7702C2.60909 12.8895 2.53726 13.0379 2.51118 13.1973C2.4851 13.3566 2.5059 13.5202 2.57105 13.6679C2.6362 13.8157 2.74289 13.9414 2.87814 14.0296C3.01339 14.1179 3.17137 14.1649 3.33287 14.165H16.6646C16.8261 14.1651 16.9841 14.1182 17.1195 14.0301C17.2548 13.9421 17.3616 13.8165 17.427 13.6689C17.4923 13.5212 17.5133 13.3577 17.4874 13.1983C17.4615 13.0389 17.3899 12.8905 17.2812 12.771C16.173 11.6287 14.9982 10.4146 14.9982 6.66592C14.9982 5.33999 14.4714 4.06837 13.5339 3.1308C12.5963 2.19323 11.3247 1.6665 9.99876 1.6665C8.67283 1.6665 7.40121 2.19323 6.46364 3.1308C5.52607 4.06837 4.99934 5.33999 4.99934 6.66592C4.99934 10.4146 3.82365 11.6287 2.71794 12.7702Z" stroke="white" stroke-width="1.66647" stroke-linecap="round" stroke-linejoin="round"/>
</svg>