<svg width="24" height="24" viewBox="0 0 24 24" fill="none" xmlns="http://www.w3.org/2000/svg">
<path d="M14.9943 20.9921V12.9951C14.9943 12.73 14.889 12.4757 14.7015 12.2883C14.514 12.1008 14.2598 11.9955 13.9947 11.9955H9.9962C9.73109 11.9955 9.47683 12.1008 9.28936 12.2883C9.1019 12.4757 8.99658 12.73 8.99658 12.9951V20.9921" stroke="#99A1AF" stroke-width="1.99924" stroke-linecap="round" stroke-linejoin="round"/>
<path d="M2.99878 9.99621C2.99871 9.70539 3.06209 9.41805 3.1845 9.15425C3.3069 8.89044 3.48539 8.65652 3.70751 8.46879L10.7048 2.47108C11.0657 2.1661 11.5229 1.99878 11.9953 1.99878C12.4678 1.99878 12.925 2.1661 13.2859 2.47108L20.2832 8.46879C20.5053 8.65652 20.6838 8.89044 20.8062 9.15425C20.9286 9.41805 20.992 9.70539 20.9919 9.99621V18.9928C20.9919 19.523 20.7813 20.0315 20.4064 20.4065C20.0314 20.7814 19.5229 20.992 18.9927 20.992H4.99802C4.46779 20.992 3.95927 20.7814 3.58434 20.4065C3.20941 20.0315 2.99878 19.523 2.99878 18.9928V9.99621Z" stroke="#99A1AF" stroke-width="1.99924" stroke-linecap="round" stroke-linejoin="round"/>
</svg>
