<svg width="20" height="20" viewBox="0 0 20 20" fill="none" xmlns="http://www.w3.org/2000/svg">
<path d="M9.99902 18.3312C14.6014 18.3312 18.3324 14.6002 18.3324 9.99785C18.3324 5.39547 14.6014 1.66455 9.99902 1.66455C5.39664 1.66455 1.66572 5.39547 1.66572 9.99785C1.66572 14.6002 5.39664 18.3312 9.99902 18.3312Z" stroke="white" stroke-width="1.66647" stroke-linecap="round" stroke-linejoin="round"/>
<path d="M7.57422 7.49854C7.77086 6.94331 8.15477 6.47415 8.66234 6.17002C9.16991 5.86589 9.77024 5.74671 10.3598 5.83421C10.9494 5.92171 11.4889 6.21035 11.8871 6.64736C12.2853 7.08437 12.5157 7.64301 12.5407 8.22521C12.5407 9.99854 9.99072 10.8819 9.99072 10.8819" stroke="white" stroke-width="1.66647" stroke-linecap="round" stroke-linejoin="round"/>
<path d="M9.99902 14.1646H10.0073" stroke="white" stroke-width="1.66647" stroke-linecap="round" stroke-linejoin="round"/>
</svg>